<?xml version="1.0" encoding="UTF-8"?>
<!DOCTYPE svg
  PUBLIC '-//W3C//DTD SVG 1.1//EN'
  'http://www.w3.org/Graphics/SVG/1.1/DTD/svg11.dtd'>
<svg version="1.1" xmlns="http://www.w3.org/2000/svg" width="46.480mm" height="23.764mm">
    <!--Autogenerated with python-barcode 0.15.1-->
    <g id="barcode_group">
        <rect width="100%" height="100%" style="fill:white"/>
        <rect x="2.540mm" y="1.000mm" width="0.200mm" height="15.000mm" style="fill:black;"/>
        <rect x="3.340mm" y="1.000mm" width="0.200mm" height="15.000mm" style="fill:black;"/>
        <rect x="3.740mm" y="1.000mm" width="0.600mm" height="15.000mm" style="fill:black;"/>
        <rect x="4.540mm" y="1.000mm" width="0.600mm" height="15.000mm" style="fill:black;"/>
        <rect x="5.340mm" y="1.000mm" width="0.200mm" height="15.000mm" style="fill:black;"/>
        <rect x="5.740mm" y="1.000mm" width="0.600mm" height="15.000mm" style="fill:black;"/>
        <rect x="6.540mm" y="1.000mm" width="0.200mm" height="15.000mm" style="fill:black;"/>
        <rect x="7.340mm" y="1.000mm" width="0.200mm" height="15.000mm" style="fill:black;"/>
        <rect x="7.740mm" y="1.000mm" width="0.200mm" height="15.000mm" style="fill:black;"/>
        <rect x="8.140mm" y="1.000mm" width="0.600mm" height="15.000mm" style="fill:black;"/>
        <rect x="8.940mm" y="1.000mm" width="0.200mm" height="15.000mm" style="fill:black;"/>
        <rect x="9.340mm" y="1.000mm" width="0.600mm" height="15.000mm" style="fill:black;"/>
        <rect x="10.540mm" y="1.000mm" width="0.200mm" height="15.000mm" style="fill:black;"/>
        <rect x="10.940mm" y="1.000mm" width="0.200mm" height="15.000mm" style="fill:black;"/>
        <rect x="11.340mm" y="1.000mm" width="0.600mm" height="15.000mm" style="fill:black;"/>
        <rect x="12.140mm" y="1.000mm" width="0.600mm" height="15.000mm" style="fill:black;"/>
        <rect x="12.940mm" y="1.000mm" width="0.600mm" height="15.000mm" style="fill:black;"/>
        <rect x="14.140mm" y="1.000mm" width="0.200mm" height="15.000mm" style="fill:black;"/>
        <rect x="14.540mm" y="1.000mm" width="0.200mm" height="15.000mm" style="fill:black;"/>
        <rect x="14.940mm" y="1.000mm" width="0.200mm" height="15.000mm" style="fill:black;"/>
        <rect x="15.340mm" y="1.000mm" width="0.200mm" height="15.000mm" style="fill:black;"/>
        <rect x="15.740mm" y="1.000mm" width="0.200mm" height="15.000mm" style="fill:black;"/>
        <rect x="16.540mm" y="1.000mm" width="0.600mm" height="15.000mm" style="fill:black;"/>
        <rect x="17.340mm" y="1.000mm" width="0.200mm" height="15.000mm" style="fill:black;"/>
        <rect x="17.740mm" y="1.000mm" width="0.600mm" height="15.000mm" style="fill:black;"/>
        <rect x="18.540mm" y="1.000mm" width="0.600mm" height="15.000mm" style="fill:black;"/>
        <rect x="19.340mm" y="1.000mm" width="0.200mm" height="15.000mm" style="fill:black;"/>
        <rect x="20.140mm" y="1.000mm" width="0.600mm" height="15.000mm" style="fill:black;"/>
        <rect x="20.940mm" y="1.000mm" width="0.200mm" height="15.000mm" style="fill:black;"/>
        <rect x="21.340mm" y="1.000mm" width="0.200mm" height="15.000mm" style="fill:black;"/>
        <rect x="21.740mm" y="1.000mm" width="0.200mm" height="15.000mm" style="fill:black;"/>
        <rect x="22.140mm" y="1.000mm" width="0.600mm" height="15.000mm" style="fill:black;"/>
        <rect x="23.340mm" y="1.000mm" width="0.600mm" height="15.000mm" style="fill:black;"/>
        <rect x="24.140mm" y="1.000mm" width="0.200mm" height="15.000mm" style="fill:black;"/>
        <rect x="24.540mm" y="1.000mm" width="0.200mm" height="15.000mm" style="fill:black;"/>
        <rect x="24.940mm" y="1.000mm" width="0.200mm" height="15.000mm" style="fill:black;"/>
        <rect x="25.340mm" y="1.000mm" width="0.200mm" height="15.000mm" style="fill:black;"/>
        <rect x="26.140mm" y="1.000mm" width="0.200mm" height="15.000mm" style="fill:black;"/>
        <rect x="26.540mm" y="1.000mm" width="0.600mm" height="15.000mm" style="fill:black;"/>
        <rect x="27.340mm" y="1.000mm" width="0.600mm" height="15.000mm" style="fill:black;"/>
        <rect x="28.140mm" y="1.000mm" width="0.600mm" height="15.000mm" style="fill:black;"/>
        <rect x="28.940mm" y="1.000mm" width="0.200mm" height="15.000mm" style="fill:black;"/>
        <rect x="29.740mm" y="1.000mm" width="0.200mm" height="15.000mm" style="fill:black;"/>
        <rect x="30.140mm" y="1.000mm" width="0.600mm" height="15.000mm" style="fill:black;"/>
        <rect x="30.940mm" y="1.000mm" width="0.200mm" height="15.000mm" style="fill:black;"/>
        <rect x="31.340mm" y="1.000mm" width="0.200mm" height="15.000mm" style="fill:black;"/>
        <rect x="31.740mm" y="1.000mm" width="0.600mm" height="15.000mm" style="fill:black;"/>
        <rect x="32.940mm" y="1.000mm" width="0.200mm" height="15.000mm" style="fill:black;"/>
        <rect x="33.340mm" y="1.000mm" width="0.600mm" height="15.000mm" style="fill:black;"/>
        <rect x="34.140mm" y="1.000mm" width="0.200mm" height="15.000mm" style="fill:black;"/>
        <rect x="34.540mm" y="1.000mm" width="0.200mm" height="15.000mm" style="fill:black;"/>
        <rect x="34.940mm" y="1.000mm" width="0.200mm" height="15.000mm" style="fill:black;"/>
        <rect x="35.740mm" y="1.000mm" width="0.600mm" height="15.000mm" style="fill:black;"/>
        <rect x="36.540mm" y="1.000mm" width="0.600mm" height="15.000mm" style="fill:black;"/>
        <rect x="37.340mm" y="1.000mm" width="0.200mm" height="15.000mm" style="fill:black;"/>
        <rect x="37.740mm" y="1.000mm" width="0.200mm" height="15.000mm" style="fill:black;"/>
        <rect x="38.140mm" y="1.000mm" width="0.600mm" height="15.000mm" style="fill:black;"/>
        <rect x="39.340mm" y="1.000mm" width="0.200mm" height="15.000mm" style="fill:black;"/>
        <rect x="39.740mm" y="1.000mm" width="0.200mm" height="15.000mm" style="fill:black;"/>
        <rect x="40.140mm" y="1.000mm" width="0.600mm" height="15.000mm" style="fill:black;"/>
        <rect x="40.940mm" y="1.000mm" width="0.200mm" height="15.000mm" style="fill:black;"/>
        <rect x="41.740mm" y="1.000mm" width="0.200mm" height="15.000mm" style="fill:black;"/>
        <rect x="42.140mm" y="1.000mm" width="0.600mm" height="15.000mm" style="fill:black;"/>
        <rect x="42.940mm" y="1.000mm" width="0.600mm" height="15.000mm" style="fill:black;"/>
        <rect x="43.740mm" y="1.000mm" width="0.200mm" height="15.000mm" style="fill:black;"/>
        <text x="23.240mm" y="21.000mm" style="fill:black;font-size:10pt;text-anchor:middle;">12345678902</text>
    </g>
</svg>
